<svg width="140" height="30" viewBox="0 0 140 30" fill="none" xmlns="http://www.w3.org/2000/svg">
<path d="M26.25 1.54955V0H34.6957V1.54955H31.4239V10.2041H29.5218V1.54955H26.25Z" fill="#2C8658"/>
<path d="M38.6046 10.3536C37.8086 10.3536 37.1211 10.1941 36.5422 9.87524C35.9668 9.55304 35.524 9.09797 35.2139 8.51004C34.9037 7.91879 34.7487 7.22291 34.7487 6.42239C34.7487 5.63516 34.9037 4.94426 35.2139 4.34969C35.5274 3.75179 35.9651 3.28676 36.5267 2.9546C37.0884 2.61911 37.7483 2.45137 38.5063 2.45137C38.9957 2.45137 39.4574 2.52777 39.8916 2.68056C40.3292 2.83004 40.7151 3.06255 41.0494 3.37811C41.3871 3.69366 41.6524 4.09558 41.8453 4.58386C42.0383 5.06882 42.1348 5.64679 42.1348 6.31776V6.87081H35.6274V5.65509H40.3412C40.3378 5.30964 40.2603 5.00239 40.1087 4.73334C39.957 4.46096 39.7451 4.24672 39.4729 4.0906C39.2041 3.93448 38.8906 3.85643 38.5322 3.85643C38.1497 3.85643 37.8137 3.94611 37.5243 4.12548C37.2348 4.30153 37.0091 4.53404 36.8472 4.82302C36.6887 5.10868 36.6077 5.42258 36.6043 5.76471V6.82597C36.6043 7.27107 36.6887 7.65306 36.8575 7.97194C37.0264 8.28749 37.2624 8.52997 37.5656 8.69938C37.8689 8.86546 38.2238 8.9485 38.6304 8.9485C38.9026 8.9485 39.149 8.91196 39.3695 8.83889C39.5901 8.76249 39.7813 8.65121 39.9433 8.50506C40.1052 8.35891 40.2275 8.17788 40.3102 7.96197L42.0573 8.15131C41.947 8.59641 41.7368 8.98504 41.4267 9.3172C41.12 9.64605 40.7272 9.90181 40.2482 10.0845C39.7692 10.2639 39.2214 10.3536 38.6046 10.3536Z" fill="#2C8658"/>
<path d="M43.7177 10.2041V2.55102H45.5319V3.82653H45.6146C45.7594 3.38475 46.0075 3.04428 46.3589 2.80513C46.7139 2.56265 47.1187 2.44141 47.5736 2.44141C47.677 2.44141 47.7924 2.44639 47.9199 2.45635C48.0508 2.463 48.1594 2.47462 48.2455 2.49123V4.15039C48.1663 4.12382 48.0405 4.10057 47.8682 4.08064C47.6994 4.05738 47.5357 4.04576 47.3772 4.04576C47.036 4.04576 46.7294 4.11717 46.4571 4.26C46.1884 4.39951 45.9765 4.59383 45.8214 4.84295C45.6663 5.09208 45.5888 5.3794 45.5888 5.70492V10.2041H43.7177Z" fill="#2C8658"/>
<path d="M49.4886 10.2041V2.55102H51.3028V3.82653H51.3855C51.5303 3.38475 51.7784 3.04428 52.1298 2.80513C52.4847 2.56265 52.8896 2.44141 53.3445 2.44141C53.4479 2.44141 53.5633 2.44639 53.6908 2.45635C53.8217 2.463 53.9303 2.47462 54.0164 2.49123V4.15039C53.9372 4.12382 53.8114 4.10057 53.6391 4.08064C53.4703 4.05738 53.3066 4.04576 53.1481 4.04576C52.8069 4.04576 52.5003 4.11717 52.228 4.26C51.9593 4.39951 51.7473 4.59383 51.5923 4.84295C51.4372 5.09208 51.3597 5.3794 51.3597 5.70492V10.2041H49.4886Z" fill="#2C8658"/>
<path d="M57.4019 10.3585C56.8988 10.3585 56.4457 10.2722 56.0426 10.0994C55.6428 9.9234 55.3258 9.66432 55.0915 9.32219C54.8606 8.98006 54.7452 8.55821 54.7452 8.05664C54.7452 7.62483 54.8279 7.26775 54.9933 6.98541C55.1587 6.70307 55.3844 6.4772 55.6704 6.3078C55.9564 6.13839 56.2786 6.01051 56.637 5.92415C56.9988 5.83446 57.3726 5.76969 57.7586 5.72983C58.2238 5.68333 58.6011 5.64181 58.8905 5.60527C59.18 5.56541 59.3902 5.50562 59.5211 5.4259C59.6555 5.34286 59.7227 5.21498 59.7227 5.04225V5.01236C59.7227 4.63701 59.6073 4.34637 59.3764 4.14043C59.1455 3.93448 58.813 3.83151 58.3788 3.83151C57.9205 3.83151 57.557 3.92784 57.2882 4.1205C57.0229 4.31315 56.8437 4.54068 56.7507 4.80309L55.0036 4.56393C55.1415 4.09891 55.3689 3.71027 55.6859 3.39804C56.0029 3.08248 56.3906 2.84665 56.8489 2.69053C57.3072 2.53109 57.8137 2.45137 58.3685 2.45137C58.751 2.45137 59.1317 2.49455 59.5108 2.58092C59.8898 2.66728 60.2361 2.81011 60.5497 3.00941C60.8633 3.20538 61.1148 3.47278 61.3043 3.81158C61.4973 4.15039 61.5938 4.5739 61.5938 5.08211V10.2041H59.7951V9.15278H59.733C59.6193 9.36537 59.4591 9.56467 59.2523 9.75068C59.049 9.93337 58.7923 10.0812 58.4822 10.1941C58.1755 10.3037 57.8154 10.3585 57.4019 10.3585ZM57.8878 9.0332C58.2634 9.0332 58.589 8.96179 58.8647 8.81896C59.1404 8.6728 59.3523 8.48015 59.5004 8.24099C59.6521 8.00183 59.7279 7.74109 59.7279 7.45875V6.55692C59.6693 6.60342 59.5694 6.6466 59.4281 6.68646C59.2902 6.72632 59.1352 6.7612 58.9629 6.7911C58.7906 6.82099 58.62 6.84756 58.4512 6.87081C58.2823 6.89407 58.1359 6.914 58.0118 6.9306C57.7327 6.96714 57.4829 7.02693 57.2624 7.10997C57.0418 7.19301 56.8678 7.30927 56.7403 7.45875C56.6128 7.6049 56.5491 7.79423 56.5491 8.02675C56.5491 8.35891 56.6749 8.60969 56.9264 8.7791C57.178 8.9485 57.4984 9.0332 57.8878 9.0332Z" fill="#2C8658"/>
<path d="M65.1137 10.2041L62.8704 2.55102H64.7777L66.1733 7.93208H66.2456L67.6722 2.55102H69.5588L70.9854 7.90218H71.0629L72.4378 2.55102H74.3502L72.1018 10.2041H70.1532L68.6646 5.03229H68.556L67.0675 10.2041H65.1137Z" fill="#2C8658"/>
<path d="M77.9412 10.3585C77.4381 10.3585 76.985 10.2722 76.5818 10.0994C76.1821 9.9234 75.8651 9.66432 75.6307 9.32219C75.3999 8.98006 75.2844 8.55821 75.2844 8.05664C75.2844 7.62483 75.3671 7.26775 75.5325 6.98541C75.6979 6.70307 75.9236 6.4772 76.2096 6.3078C76.4957 6.13839 76.8178 6.01051 77.1762 5.92415C77.538 5.83446 77.9119 5.76969 78.2978 5.72983C78.763 5.68333 79.1403 5.64181 79.4298 5.60527C79.7192 5.56541 79.9294 5.50562 80.0603 5.4259C80.1947 5.34286 80.2619 5.21498 80.2619 5.04225V5.01236C80.2619 4.63701 80.1465 4.34637 79.9156 4.14043C79.6848 3.93448 79.3522 3.83151 78.9181 3.83151C78.4598 3.83151 78.0962 3.92784 77.8275 4.1205C77.5621 4.31315 77.3829 4.54068 77.2899 4.80309L75.5429 4.56393C75.6807 4.09891 75.9081 3.71027 76.2252 3.39804C76.5422 3.08248 76.9298 2.84665 77.3881 2.69053C77.8464 2.53109 78.3529 2.45137 78.9077 2.45137C79.2902 2.45137 79.671 2.49455 80.05 2.58092C80.4291 2.66728 80.7754 2.81011 81.0889 3.00941C81.4025 3.20538 81.654 3.47278 81.8436 3.81158C82.0365 4.15039 82.133 4.5739 82.133 5.08211V10.2041H80.3343V9.15278H80.2723C80.1586 9.36537 79.9983 9.56467 79.7916 9.75068C79.5883 9.93337 79.3316 10.0812 79.0214 10.1941C78.7148 10.3037 78.3547 10.3585 77.9412 10.3585ZM78.427 9.0332C78.8026 9.0332 79.1283 8.96179 79.4039 8.81896C79.6796 8.6728 79.8915 8.48015 80.0397 8.24099C80.1913 8.00183 80.2671 7.74109 80.2671 7.45875V6.55692C80.2085 6.60342 80.1086 6.6466 79.9673 6.68646C79.8295 6.72632 79.6744 6.7612 79.5021 6.7911C79.3298 6.82099 79.1593 6.84756 78.9904 6.87081C78.8216 6.89407 78.6751 6.914 78.5511 6.9306C78.272 6.96714 78.0221 7.02693 77.8016 7.10997C77.5811 7.19301 77.4071 7.30927 77.2796 7.45875C77.1521 7.6049 77.0883 7.79423 77.0883 8.02675C77.0883 8.35891 77.2141 8.60969 77.4656 8.7791C77.7172 8.9485 78.0377 9.0332 78.427 9.0332Z" fill="#2C8658"/>
<path d="M84.0144 10.2041V2.55102H85.8286V3.82653H85.9114C86.0561 3.38475 86.3042 3.04428 86.6556 2.80513C87.0106 2.56265 87.4154 2.44141 87.8703 2.44141C87.9737 2.44141 88.0891 2.44639 88.2166 2.45635C88.3475 2.463 88.4561 2.47462 88.5422 2.49123V4.15039C88.463 4.12382 88.3372 4.10057 88.1649 4.08064C87.9961 4.05738 87.8324 4.04576 87.6739 4.04576C87.3328 4.04576 87.0261 4.11717 86.7539 4.26C86.4851 4.39951 86.2732 4.59383 86.1181 4.84295C85.963 5.09208 85.8855 5.3794 85.8855 5.70492V10.2041H84.0144Z" fill="#2C8658"/>
<path d="M92.9731 10.3536C92.1771 10.3536 91.4897 10.1941 90.9108 9.87524C90.3354 9.55304 89.8926 9.09797 89.5824 8.51004C89.2723 7.91879 89.1173 7.22291 89.1173 6.42239C89.1173 5.63516 89.2723 4.94426 89.5824 4.34969C89.896 3.75179 90.3336 3.28676 90.8953 2.9546C91.457 2.61911 92.1168 2.45137 92.8749 2.45137C93.3642 2.45137 93.826 2.52777 94.2601 2.68056C94.6978 2.83004 95.0837 3.06255 95.4179 3.37811C95.7556 3.69366 96.021 4.09558 96.2139 4.58386C96.4069 5.06882 96.5034 5.64679 96.5034 6.31776V6.87081H89.9959V5.65509H94.7098C94.7064 5.30964 94.6288 5.00239 94.4772 4.73334C94.3256 4.46096 94.1137 4.24672 93.8415 4.0906C93.5727 3.93448 93.2591 3.85643 92.9008 3.85643C92.5183 3.85643 92.1823 3.94611 91.8929 4.12548C91.6034 4.30153 91.3777 4.53404 91.2158 4.82302C91.0573 5.10868 90.9763 5.42258 90.9728 5.76471V6.82597C90.9728 7.27107 91.0573 7.65306 91.2261 7.97194C91.3949 8.28749 91.631 8.52997 91.9342 8.69938C92.2374 8.86546 92.5924 8.9485 92.999 8.9485C93.2712 8.9485 93.5176 8.91196 93.7381 8.83889C93.9586 8.76249 94.1499 8.65121 94.3118 8.50506C94.4738 8.35891 94.5961 8.17788 94.6788 7.96197L96.4258 8.15131C96.3156 8.59641 96.1054 8.98504 95.7953 9.3172C95.4886 9.64605 95.0958 9.90181 94.6168 10.0845C94.1378 10.2639 93.5899 10.3536 92.9731 10.3536Z" fill="#2C8658"/>
<path d="M101.343 10.2041V2.04082H102.579V5.07414H102.654C102.725 4.94659 102.829 4.79911 102.964 4.6317C103.099 4.46429 103.286 4.31813 103.526 4.19324C103.766 4.06569 104.083 4.00191 104.477 4.00191C104.99 4.00191 105.448 4.12681 105.85 4.37659C106.253 4.62638 106.568 4.98645 106.797 5.45679C107.029 5.92714 107.144 6.49314 107.144 7.15481C107.144 7.81649 107.03 8.38382 106.801 8.85682C106.572 9.32717 106.258 9.68989 105.858 9.94499C105.459 10.1974 105.002 10.3237 104.49 10.3237C104.104 10.3237 103.788 10.2612 103.543 10.1363C103.3 10.0114 103.11 9.86527 102.972 9.69786C102.834 9.53045 102.728 9.38164 102.654 9.25143H102.55V10.2041H101.343ZM102.555 7.14286C102.555 7.57334 102.619 7.95068 102.749 8.27487C102.878 8.59906 103.066 8.85284 103.311 9.03619C103.557 9.21689 103.857 9.30724 104.213 9.30724C104.582 9.30724 104.891 9.2129 105.139 9.02423C105.387 8.83291 105.574 8.57382 105.701 8.24697C105.831 7.92012 105.896 7.55208 105.896 7.14286C105.896 6.73895 105.832 6.37622 105.705 6.05469C105.581 5.73315 105.394 5.47938 105.143 5.29337C104.895 5.10736 104.585 5.01435 104.213 5.01435C103.854 5.01435 103.551 5.10337 103.303 5.28141C103.058 5.45945 102.872 5.70791 102.745 6.02679C102.618 6.34566 102.555 6.71769 102.555 7.14286Z" fill="#2C8658"/>
<path d="M109.098 12.5C108.913 12.5 108.745 12.4854 108.594 12.4562C108.442 12.4296 108.329 12.4004 108.255 12.3685L108.552 11.3919C108.778 11.4504 108.98 11.4756 109.156 11.4676C109.332 11.4597 109.488 11.3959 109.623 11.2763C109.761 11.1567 109.882 10.9614 109.987 10.6904L110.14 10.2838L107.816 4.08163H109.139L110.748 8.83291H110.814L112.423 4.08163H113.75L111.133 11.0212C111.011 11.3401 110.857 11.6098 110.669 11.8304C110.482 12.0536 110.259 12.221 110 12.3326C109.74 12.4442 109.44 12.5 109.098 12.5Z" fill="#2C8658"/>
<g clip-path="url(#clip0_4518_6326)">
<path d="M31.0135 24.5027C27.6351 22.3628 23.7838 20.8916 19.6622 20.2898V16.3443C19.6622 15.2743 19.4595 14.405 18.9865 13.9369C18.6486 13.4688 17.973 13.2013 17.1622 13.2013H14.8649V14.6056H16.7568C17.7027 14.6056 18.0405 15.2743 18.0405 16.4112V20.0892C17.2297 20.0223 16.3514 19.9554 15.5405 19.9554C14.8649 19.9554 14.2568 19.9554 13.5811 20.0223V13.2013L11.8919 13.6694V20.156C7.56757 20.691 3.51351 22.2291 0 24.5027C3.64865 22.6972 7.63514 21.4935 11.8919 21.0254V26.3083C11.8919 27.3782 12.0946 28.2476 12.5676 28.7157C12.973 29.1838 13.5811 29.4513 14.3919 29.4513H16.7568V28.047H14.8649C13.9189 28.047 13.5811 27.3782 13.5811 26.2414V20.8916C14.2568 20.8248 14.8649 20.8248 15.5405 20.8248C15.9885 20.8248 16.4189 20.8421 16.8406 20.8592C17.2459 20.8756 17.6432 20.8916 18.0405 20.8916V29.4513L19.7297 28.9832V21.0922C23.7162 21.5603 27.5676 22.7641 31.0135 24.5027Z" fill="#1B5035"/>
<path d="M55.2703 23.299C55.2703 22.0284 55.6081 21.2928 56.6892 21.2928L57.3649 21.226V19.6879H56.2162C55.3378 19.6879 54.6621 20.0222 54.1892 20.4904C53.6486 21.0922 53.4459 22.0284 53.4459 23.2321V27.2445H55.2703V23.299Z" fill="#1B5035"/>
<path d="M61.554 21.2928C60.473 21.2928 60.1351 22.0284 60.1351 23.299V27.2445H58.3108V23.2321C58.3108 22.0284 58.5135 21.0922 59.054 20.4904C59.527 20.0222 60.2027 19.6879 61.0811 19.6879H62.2297V21.226L61.554 21.2928Z" fill="#1B5035"/>
<path d="M90.9459 21.2928C89.8649 21.2928 89.527 22.0284 89.527 23.299V27.2445H87.7027V23.2321C87.7027 22.0284 87.9054 21.0922 88.4459 20.4904C88.9189 20.0222 89.5946 19.6879 90.473 19.6879H91.6216V21.226L90.9459 21.2928Z" fill="#1B5035"/>
<path fill-rule="evenodd" clip-rule="evenodd" d="M48.2433 27.4451C49.7973 27.4451 50.8108 26.977 51.6216 25.8402L50.1351 24.9708C49.6622 25.5058 49.1216 25.7064 48.3108 25.7064C47.2297 25.7064 46.4189 25.1046 46.2162 24.0346H52.1622V23.6334C52.1622 21.3597 50.6081 19.6879 48.2433 19.6879C45.8784 19.6879 44.3919 21.5603 44.3919 23.5665C44.3919 25.7064 45.8784 27.4451 48.2433 27.4451ZM48.2433 21.2928C49.2568 21.2928 50 21.8278 50.2703 22.6971H46.2838C46.6216 21.7609 47.2973 21.2928 48.2433 21.2928Z" fill="#1B5035"/>
<path fill-rule="evenodd" clip-rule="evenodd" d="M68.7838 26.5089C68.1081 27.1107 67.4324 27.4451 66.4865 27.4451C64.5946 27.4451 62.973 25.8402 62.973 23.5665C62.973 21.2928 64.527 19.6879 66.4865 19.6879C67.3649 19.6879 68.1757 20.0222 68.7838 20.691V19.8885H70.6081V27.2445H68.7838V26.5089ZM64.8649 23.5665C64.8649 24.8371 65.6757 25.7733 66.8243 25.7733C67.973 25.7733 68.8514 24.9039 68.8514 23.5665C68.8514 22.2959 67.973 21.4266 66.8243 21.4266C65.6081 21.4266 64.8649 22.4297 64.8649 23.5665Z" fill="#1B5035"/>
<path fill-rule="evenodd" clip-rule="evenodd" d="M82.4324 27.4451C84.6622 27.4451 86.3513 25.7064 86.3513 23.5665C86.3513 21.4266 84.5946 19.7548 82.4324 19.6879C80.4054 19.6879 78.5811 21.3597 78.5811 23.5665C78.5811 25.7733 80.2703 27.4451 82.4324 27.4451ZM82.4324 25.7064C81.2838 25.7064 80.473 24.8371 80.473 23.5665C80.473 22.3628 81.2838 21.4934 82.4324 21.4266C83.6486 21.4266 84.4594 22.2959 84.4594 23.5665C84.4594 24.9039 83.5811 25.7064 82.4324 25.7064Z" fill="#1B5035"/>
<path fill-rule="evenodd" clip-rule="evenodd" d="M111.149 26.5089C110.473 27.1107 109.797 27.4451 108.851 27.4451C106.959 27.4451 105.338 25.8402 105.338 23.5665C105.338 21.2928 106.892 19.6879 108.851 19.6879C109.73 19.6879 110.541 20.0222 111.149 20.691V19.8885H112.973V27.2445H111.149V26.5089ZM107.162 23.5665C107.162 24.8371 107.973 25.7733 109.122 25.7733C110.27 25.7733 111.149 24.9039 111.149 23.5665C111.149 22.2959 110.27 21.4266 109.122 21.4266C107.973 21.4266 107.162 22.4297 107.162 23.5665Z" fill="#1B5035"/>
<path d="M122.365 18.8186C123.041 18.8186 123.581 18.2836 123.581 17.6149C123.581 16.9462 123.041 16.4112 122.365 16.4112C121.689 16.4112 121.149 16.9462 121.149 17.548C121.149 18.2168 121.689 18.8186 122.365 18.8186Z" fill="#1B5035"/>
<path d="M123.311 19.9554H121.487V27.3114H123.311V19.9554Z" fill="#1B5035"/>
<path d="M46.2838 15.1406H35.946V16.9462H40.1351V27.2445H42.027V16.9462H46.2838V15.1406Z" fill="#1B5035"/>
<path fill-rule="evenodd" clip-rule="evenodd" d="M128.446 27.4451C130.676 27.4451 132.365 25.7064 132.365 23.5665C132.365 21.4266 130.608 19.7548 128.446 19.6879C126.419 19.6879 124.595 21.3597 124.595 23.5665C124.595 25.7733 126.284 27.4451 128.446 27.4451ZM128.446 25.7064C127.297 25.7064 126.487 24.8371 126.487 23.5665C126.487 22.3628 127.297 21.4934 128.446 21.4266C129.662 21.4266 130.473 22.2959 130.473 23.5665C130.473 24.9039 129.595 25.7064 128.446 25.7064Z" fill="#1B5035"/>
<path d="M120.135 21.4935V19.8886H118.041V16.4112L116.216 16.9462V19.9554H114.257V21.5604H116.216V25.3052C116.216 26.5089 116.419 27.4452 116.959 28.047C117.432 28.5151 118.108 28.8495 118.986 28.8495H120.135V27.2445H119.459C118.378 27.2445 118.041 26.5089 118.041 25.2384V21.4935H120.135Z" fill="#1B5035"/>
<path d="M77.8378 15.4081V16.9462H77.1622C75.9459 16.9462 75.7432 17.548 75.7432 18.9524V19.8886H77.8378V21.4935H75.7432V28.6489L73.9189 29.1838V21.6273H71.9595V20.0223H73.9189V18.9524C73.9189 17.6818 74.1216 16.8124 74.6622 16.2106C75.0676 15.6756 75.8108 15.4081 76.6892 15.4081H77.8378Z" fill="#1B5035"/>
<path d="M99.527 27.2445H97.7027V23.7003C97.7027 22.296 97.4324 21.4266 96.4189 21.4266C95.473 21.4266 94.7973 22.1622 94.7973 23.7003V27.2445H92.973V19.7548H94.7973V20.7579C95.4054 20.0892 96.2162 19.7548 97.0946 19.7548C98.0405 19.7548 98.7838 20.1561 99.2567 21.0923C99.9324 20.2229 100.608 19.7548 101.757 19.7548C102.568 19.7548 103.311 20.0892 103.716 20.6242C104.189 21.226 104.257 22.0285 104.257 23.0316V27.2445H102.432V23.2322C102.432 22.0285 102.027 21.4266 101.149 21.4266C100.203 21.4266 99.527 22.1622 99.527 23.6334V27.2445Z" fill="#1B5035"/>
<path d="M137.432 19.7548C136.622 19.7548 136.014 20.0892 135.27 20.691V19.8886H133.446V27.2445H135.27V24.1684C135.27 24.0754 135.269 23.9834 135.268 23.8925C135.261 23.2647 135.254 22.688 135.608 22.1622C135.946 21.6941 136.351 21.4266 136.892 21.4266C138.041 21.4266 138.176 22.296 138.176 23.7672V27.2445H140V22.296C140 20.691 138.784 19.7548 137.432 19.7548Z" fill="#1B5035"/>
</g>
<defs>
<clipPath id="clip0_4518_6326">
<rect width="140" height="16.25" fill="white" transform="translate(0 13.2013)"/>
</clipPath>
</defs>
</svg>
